<svg xmlns="http://www.w3.org/2000/svg" viewBox="0 0 61.999995 61.999995"><path d="M22.5 60.66c-9.4-3.1-15.84-8.74-19.68-17.16-3.17-6.96-3.16-17.97.02-25.1C5.68 12.05 11.96 5.8 18.5 2.82c6.98-3.18 18.02-3.18 25 0C54.93 8.02 61.44 18.25 61.44 31s-6.6 23.1-17.88 28.08c-6.02 2.66-15.64 3.38-21.06 1.58zm-1.47-19.2c1.36-1.22 2.26-1.3 4.58-.4 6.47 2.47 16.65-1.84 19.74-8.37 2.03-4.28 2.14-9.66.25-12.25-1.35-1.83-1.5-1.84-3.34-.2-1.05.97-3.46 1.76-5.34 1.77C26.76 22.1 20 26.75 20 33.7c0 2-.72 4.44-1.6 5.4-.88.98-1.3 2.25-.94 2.84.9 1.43 1.57 1.34 3.57-.47zm2.97-6.3c0-1.4 3.34-4 7.25-5.62C35.5 27.77 38 27.57 38 29c0 .55-.92 1-2.05 1-2.5 0-7.13 2.3-8.9 4.43-1.4 1.7-3.05 2.1-3.05.72z"/></svg>