<svg xmlns="http://www.w3.org/2000/svg" viewBox="0 0 40.000038 39.999998"><path d="M13.05 38.7C5.25 36.2-1.05 25.8.3 17.55 1.72 8.8 6.8 3.1 15.27.85c14.75-3.94 27.88 9.82 23.68 24.83-3.02 10.77-14.63 16.6-25.9 13.02zm13.48-11.15c3.04-1.27 3.47-1.9 3.47-5 0-1.95.45-3.55 1-3.55s1 1.58 1 3.5c0 1.93.45 3.5 1 3.5s1-2.2 1-4.86v-4.87l-7.36-3.2-7.35-3.22-6.4 2.67c-7.84 3.27-8.8 4.1-6.66 5.73.9.7 1.78 2.6 1.95 4.25.57 5.56 10.54 8.3 18.33 5.05zM15 25.68c-1.9-.65-3.63-1.97-3.8-2.93-.42-2.14 1-2.22 4.77-.27 2.53 1.3 3.28 1.3 6.42 0 4.5-1.88 4.6-1.87 4.6.5 0 1.35-.88 2.18-2.75 2.6l-4.25.95c-.82.2-3.07-.2-5-.85zm-1-6.86l-4.5-2.05 4-1.8c5.07-2.3 6.12-2.32 11-.1l4 1.8-4.2 2.17c-5 2.56-4.6 2.56-10.3-.02z"/></svg>