<svg xmlns="http://www.w3.org/2000/svg" viewBox="0 0 31.77 31.77">
  <g fill="#FFF">
    <path d="M31.77 20.32c0-.48-.28-.87-.67-1.07V11.9c.1-.03.14-.12.14-.2 0-.1-.06-.2-.15-.22L15.9 6.12c-.2-.06-.4-.06-.6 0L.15 11.48c-.1.03-.15.1-.15.2s.06.2.14.22l15.15 5.9c.2.08.43.08.64 0l14.1-5.5v6.95c-.4.2-.68.6-.68 1.07 0 .5.3.92.73 1.1-.44.85-.74 2.58-.74 3.08 0 .66.54 1.2 1.2 1.2.66 0 1.2-.54 1.2-1.2 0-.5-.3-2.23-.73-3.08.43-.18.73-.6.73-1.1z"/>
    <path d="M4.9 14.87v4c0 3.17 4.74 5.74 10.72 5.9 5.98-.16 10.73-2.73 10.73-5.9v-4l-10.4 4.05c-.22.08-.45.08-.66 0L4.9 14.87z"/>
  </g>
</svg>
