<svg xmlns="http://www.w3.org/2000/svg" xmlns:xlink="http://www.w3.org/1999/xlink" viewBox="0 0 26.999999 29"><g transform="translate(-345.81 -484.092)"><path d="M350.4 512c-3.18-.9-4.55-2.44-4.57-5.16-.03-2.54 3.6-5.75 6.48-5.75 1.84 0 2.5-.54 2.5-2 0-1.47-.66-2-2.45-2-4.9 0-6.22-7.54-1.9-10.94 2.04-1.6 4-2.05 8.74-2 5 .06 5.72.26 3.94 1.12-1.87.9-2.02 1.4-1.08 3.45.9 2 .7 2.92-1.08 5.34-2.7 3.68-2.7 3.8.33 6.6 3.1 2.88 3.18 5.58.26 8.76-2.56 2.8-6.9 3.8-11.16 2.58zm9.38-3.86c.84-1.56.6-2.36-1.15-4-1.2-1.13-2.7-2.05-3.3-2.05-1.8 0-5.52 3.02-5.52 4.5 0 3.5 8.25 4.78 9.98 1.54zm-.97-15.97c0-2.84-3.4-6.52-5.33-5.78-2.15.82-2.16 5.48-.03 7.83 1.96 2.17 5.37.87 5.37-2.06zm8 7.92c0-1.12-.66-2-1.5-2-.82 0-1.5-.46-1.5-1 0-.56.68-1 1.5-1 .84 0 1.5-.9 1.5-2 0-1.12.68-2 1.5-2 .84 0 1.5.88 1.5 2 0 1.1.68 2 1.5 2 .83 0 1.5.44 1.5 1 0 .54-.67 1-1.5 1-.82 0-1.5.88-1.5 2 0 1.1-.66 2-1.5 2-.82 0-1.5-.9-1.5-2z"/></g></svg>