<svg xmlns="http://www.w3.org/2000/svg" viewBox="0 0 604.35 604.35">
  <path d="M516.38 255v-76.5h-51V255h-76.5v51h76.5v76.5h51V306h76.5v-51h-76.5zM320 341.7l-28.05-20.4c-10.2-7.65-20.4-17.85-20.4-35.7s12.75-33.15 25.5-40.8c33.15-25.5 66.3-53.55 66.3-109.65 0-53.55-33.15-84.15-51-99.45h43.35L386.33 0h-158.1c-112.2 0-168.3 71.4-168.3 147.9 0 58.65 45.9 122.4 127.5 122.4h20.4c-2.54 7.65-10.2 20.4-10.2 33.15 0 25.5 10.2 35.7 22.96 51-35.7 2.55-102 10.2-150.47 40.8-45.9 28.05-58.65 66.3-58.65 94.35 0 58.65 53.54 114.75 168.3 114.75 137.7 0 204-76.5 204-150.45 0-53.55-28.06-81.6-63.76-112.2zM126.2 109.65c0-56.1 33.15-81.6 68.85-81.6 66.3 0 102 89.25 102 140.25 0 66.3-53.55 79.05-73.95 79.05-63.75 0-96.9-79.05-96.9-137.7zm91.8 459c-84.15 0-137.7-38.25-137.7-94.35 0-56.1 51-73.95 66.3-81.6 33.15-10.2 76.5-12.75 84.15-12.75h17.85c61.2 43.35 86.7 61.2 86.7 102 0 48.45-48.44 86.7-117.3 86.7z" fill="#FFF"/>
</svg>
