<svg xmlns="http://www.w3.org/2000/svg" xmlns:xlink="http://www.w3.org/1999/xlink" viewBox="0 0 39.999999 40.000017"><g transform="translate(-346.13 -479.533)"><path d="M359.34 518.46c-4.88-1.5-10.62-7.75-12.16-13.25-4.2-15 8.93-28.76 23.68-24.82 9.58 2.57 14.74 9.26 14.76 19.15.02 10.77-7.13 18.73-17.54 19.52-3 .23-6.93-.03-8.74-.6zm5.6-13.68c.18-1.78.7-3.25 1.2-3.25.47 0 1 1.47 1.18 3.25.28 2.97.64 3.28 4.06 3.56l3.75.3v-4.55c0-3.4.4-4.57 1.5-4.57 2.66 0 1.57-1.4-4.53-5.83l-5.97-4.34-5.97 4.34c-6.1 4.42-7.2 5.83-4.53 5.83 1.1 0 1.5 1.18 1.5 4.56v4.55l3.75-.3c3.42-.3 3.78-.6 4.06-3.57zm-5.8-3.06c0-4.17.38-5.1 2.95-7 3.67-2.72 4.4-2.72 8.07 0 2.57 1.9 2.96 2.83 2.96 7 0 4.15-.28 4.8-2 4.8-1.62 0-2-.65-2-3.5 0-3.2-.24-3.5-3-3.5s-3 .3-3 3.5c0 2.85-.38 3.5-2 3.5-1.72 0-2-.65-2-4.8z"/></g></svg>