<svg xmlns="http://www.w3.org/2000/svg" viewBox="0 0 539.08 539.08">
  <path d="M460.46 527.85H325.7c-6.22 0-11.24-5.03-11.24-11.24v-146h-89.84v146c0 6.3-5.03 11.3-11.24 11.3H78.62c-6.2 0-11.24-5-11.24-11.2V292c0-6.2 5.03-11.23 11.24-11.23 6.2 0 11.23 5.02 11.23 11.23v213.38h112.3v-146c0-6.2 5.03-11.23 11.23-11.23h112.3c6.22 0 11.24 5.03 11.24 11.24v146h112.3V303.2c0-6.2 5.03-11.23 11.24-11.23 6.2 0 11.23 5 11.23 11.22v213.4c0 6.2-5.1 11.2-11.3 11.2zM527.86 292c-2.9 0-5.76-1.1-7.95-3.3L269.6 38.35 19.18 288.7c-4.4 4.4-11.5 4.4-15.9 0-4.4-4.38-4.4-11.48 0-15.87l258.3-258.3c4.36-4.4 11.5-4.4 15.86 0l258.3 258.3c4.4 4.4 4.4 11.5 0 15.88-2.2 2.2-5.06 3.3-7.93 3.3zM438 134.77c-6.2 0-11.23-5.02-11.23-11.23v-67.4h-67.4c-6.2 0-11.22-5-11.22-11.22s5.03-11.23 11.23-11.23H438c6.2 0 11.23 5 11.23 11.2v78.6c0 6.2-5.02 11.2-11.23 11.2z" fill="#FFF"/>
</svg>
