<svg xmlns="http://www.w3.org/2000/svg" xmlns:xlink="http://www.w3.org/1999/xlink" viewBox="0 0 62.000004 62"><g transform="translate(-331.982 -469.456)"><path d="M354.48 530.12c-9.4-3.1-15.84-8.74-19.68-17.16-3.17-6.96-3.16-17.97.02-25.1 2.84-6.36 9.12-12.6 15.66-15.6 6.98-3.16 18.02-3.16 25 0 11.43 5.22 17.94 15.45 17.94 28.2s-6.6 23.1-17.88 28.08c-6.02 2.65-15.64 3.37-21.06 1.58zm12.03-23.3c2.47-5.28 4.48-9.84 4.48-10.12 0-.28-1.6-.24-3.6.08-3.08.5-3.48.34-2.92-1.12.37-.94.92-2.97 1.23-4.53.54-2.7.4-2.8-2.83-2.5-3.3.32-3.43.5-5.3 7.6-1.03 4-1.67 7.47-1.42 7.73.26.25 1.9.05 3.65-.45 3.7-1.05 3.72-1 1.8 7.2-.75 3.17-.95 5.76-.45 5.76.5 0 2.9-4.33 5.36-9.63z" fill="#626262"/></g></svg>