<svg xmlns="http://www.w3.org/2000/svg" xmlns:xlink="http://www.w3.org/1999/xlink" viewBox="0 0 18.087621 14.843182"><g transform="translate(-352.682 -492.474)"><path d="M353.4 506.84c-.4-.38-.72-3.77-.72-7.53v-6.83h18.09l-.3 7.25-.3 7.25-8.03.3c-4.43.15-8.37-.04-8.75-.43zm15.28-4.5c0-3.04-.05-3.07-2.25-1.47-4.48 3.26-5 3.26-9.5 0-2.2-1.6-2.25-1.57-2.25 1.48v3.12h14v-3.12zm-2.96-4.05c1.63-1.22 2.96-2.57 2.96-3 0-.46-3.15-.83-7-.83s-7 .32-7 .72c0 1.08 5.33 5.2 6.8 5.24.7.02 2.6-.95 4.24-2.15z"/></g></svg>