<svg xmlns="http://www.w3.org/2000/svg" xmlns:xlink="http://www.w3.org/1999/xlink" viewBox="0 0 39.289217 39.359989"><g transform="translate(-341.952 -481.077)"><path d="M354.95 519.7c-4.76-1.47-10.88-8.02-12.26-13.13-2.4-8.9 1.15-18.23 8.72-22.94 5.68-3.52 15.44-3.38 21.02.3 6.24 4.14 8.8 9.03 8.8 16.83 0 7.7-2.55 12.68-8.5 16.63-4.3 2.83-12.54 3.9-17.8 2.3zm1.6-11.14c.65-.66 1.2-3.1 1.2-5.4 0-4 .14-4.2 3.56-4.85 1.98-.36 4.23-.9 5-1.2 2.62-1 1.6 3.27-1.06 4.48-3.3 1.5-3.43 5.18-.2 5.18 3.75 0 4.7-1.9 4.7-9.33v-6.92l-3.2.65c-1.75.35-4.9 1.1-7 1.66-3.73 1.02-3.8 1.12-3.8 5.84 0 4.15-.34 4.95-2.5 5.94-3.3 1.5-3.43 5.18-.2 5.18 1.27 0 2.84-.54 3.5-1.2zm-3.3-1.8c.33-.55 1.06-1 1.6-1 .56 0 .73.45.4 1-.35.55-1.08 1-1.63 1-.55 0-.72-.45-.38-1zm12-3c.33-.55 1.06-1 1.6-1 .56 0 .73.45.4 1-.35.55-1.08 1-1.63 1-.55 0-.72-.45-.38-1zm-6.5-7.77c0-.5 2.02-1.37 4.5-1.93 2.47-.57 4.5-.7 4.5-.28 0 .4-1.25 1.04-2.76 1.4-1.52.36-3.55.9-4.5 1.17-.97.3-1.76.12-1.76-.38z"/></g></svg>