<svg xmlns="http://www.w3.org/2000/svg" viewBox="0 0 90 90">
  <path d="M88.62 35.32C85.18 41.92 78 43.92 71 47.6v14.22c0 2-2.6 13.68-12.46 13.68-9.86 0-13.1-5.64-13.1-7.98v-13.2c-.98-.22-1.93-.55-2.85-1.03v14.2c0 2.3-3.7 5.7-8.6 5.7-4.87 0-14.2-6.9-14.2-11.4V46.4S6.9 41.35 3.9 37.66c-3-3.68-4.5-5.2-3.67-7.36.8-2.1 10.53 6.02 16.2 7.36 5.7 1.34 15.54 2 19.72 1.85 4.18-.1 6.52 1.5 8.86 3.7l.48.4v-1.7c0-2 5.35-2.8 8.52-2.8h14.2s14.6-4.22 17.62-7.6c3-3.32 6.1-2.32 2.88 3.88zm-29.93-.9c5.4 0 9.9-4.46 9.9-9.96 0-5.5-4.5-9.96-10-9.96s-9.96 4.46-9.96 9.96c0 5.5 4.45 9.96 9.94 9.96zm-26.2 0c5.5 0 9.9-4.46 9.9-9.96 0-5.5-4.5-9.96-10-9.96s-9.95 4.46-9.95 9.96c0 5.5 4.45 9.96 9.94 9.96z" fill="#FFF"/>
</svg>
