<svg xmlns="http://www.w3.org/2000/svg" xmlns:xlink="http://www.w3.org/1999/xlink" viewBox="0 0 39.62595 39.587741"><g transform="translate(-342.022 -480.97)"><path d="M354.95 519.5c-7.8-2.5-14.08-12.9-12.75-21.15 1.42-8.76 6.5-14.43 14.97-16.7 14.75-3.94 27.88 9.83 23.68 24.83-3 10.77-14.63 16.6-25.9 13.02zm1.88-11.85c2.3-2.84 7.9-2.8 10.23.1.9 1.13 1.93 2.05 2.25 2.05 1.25 0 .52-2.08-1.4-4-1.53-1.53-1.65-2-.52-2 2.34 0 3-4.77 1.2-8.58-2.84-5.92-10.5-5.92-13.34 0-1.8 3.8-1.15 8.58 1.18 8.58 1.14 0 1.02.47-.52 2-1.9 1.92-2.65 4-1.4 4 .32 0 1.37-.97 2.33-2.15zm2.27-5.05c-2.37-2.37-1.32-3.8 2.8-3.8 2.62 0 4 .45 4 1.3 0 1.8-2.06 3.7-4 3.7-.88 0-2.14-.54-2.8-1.2zm-3.08-2.82c-.17-3.8 2.5-6.98 5.88-6.98 3.4 0 6.07 3.2 5.87 6.98-.13 2.35-.17 2.37-.57.27-.4-2-2.4-2.86-5.55-2.36-.4.05-.75-.57-.75-1.4 0-1.2-.4-1.1-1.9.4-1.06 1.06-2.13 2.75-2.4 3.76-.34 1.35-.5 1.16-.58-.68z"/></g></svg>