<svg xmlns="http://www.w3.org/2000/svg" viewBox="0 0 24.33779 19.145568"><path d="M18 18.15c-.82-.53-2.7-.98-4.17-.98-1.47 0-3.5-.34-4.5-.72-1.6-.62-1.53-.8.67-1.4l2.5-.7-2.68-.1c-1.48-.05-3.9.36-5.4.93-3.13 1.2-4.2.62-2.55-1.37.9-1.06.8-1.67-.36-2.64C.7 10.46 0 8.4 0 6.56 0 1.6 3.6-.32 12.25.03c5.78.23 8.75 7.08 5 11.53-1.75 2.08-1.75 2.08.5.18 1.4-1.2 2.25-3.03 2.25-4.9 0-2.9.07-2.94 1.9-1.3 2.62 2.38 3.12 5 1.53 8.07-.74 1.42-1.1 3.25-.78 4.06.65 1.7-2.28 2-4.65.47zm-2.58-8.92c2.42-2.67.6-5.8-3.85-6.63-4.3-.8-7.27.12-8.65 2.7-1.68 3.14 1.36 5.85 6.58 5.85 2.86 0 4.74-.6 5.92-1.92z"/></svg>