<svg xmlns="http://www.w3.org/2000/svg" viewBox="0 0 85.757859 15.895858"><path d="M3.3 13.34c.5-2.26.17-3.4-1.38-4.8C-.88 6-.64 5 2.72 5c2.06 0 3.15-.7 3.98-2.5.63-1.38 1.53-2.5 2-2.5s1.37 1.12 2 2.5c1 2.2 1.75 2.5 6.5 2.5s5.5-.3 6.5-2.5c.63-1.38 1.53-2.5 2-2.5s1.37 1.12 2 2.5c1 2.2 1.75 2.5 6.5 2.5s5.5-.3 6.5-2.5c.63-1.38 1.53-2.5 2-2.5s1.37 1.12 2 2.5c1 2.2 1.75 2.5 6.5 2.5s5.5-.3 6.5-2.5c.63-1.38 1.53-2.5 2-2.5s1.37 1.12 2 2.5c1 2.2 1.75 2.5 6.5 2.5s5.5-.3 6.5-2.5c.63-1.38 1.53-2.5 2-2.5s1.37 1.12 2 2.5c.85 1.86 1.9 2.5 4.16 2.5 3.55 0 3.8.98.94 3.57-1.54 1.4-1.93 2.62-1.5 4.77.53 2.64.38 2.83-1.67 2.18-2.86-.9-4.65-.9-7.6.03-2.2.7-2.33.54-1.72-2.2.5-2.2.18-3.4-1.22-4.67-1.77-1.6-1.97-1.58-3.65.27-1.25 1.38-1.6 2.76-1.1 4.64.6 2.43.45 2.6-1.65 1.93-2.9-.92-4.7-.9-7.66.02-2.2.7-2.32.54-1.7-2.2.47-2.2.16-3.4-1.24-4.67-1.77-1.6-1.97-1.58-3.65.27-1.25 1.38-1.6 2.76-1.1 4.64.6 2.43.45 2.6-1.65 1.93-2.9-.92-4.7-.9-7.66.02-2.2.7-2.32.54-1.7-2.22.47-2.2.16-3.4-1.24-4.65-1.77-1.6-1.97-1.58-3.65.27-1.25 1.38-1.6 2.76-1.1 4.64.6 2.43.45 2.6-1.65 1.93-2.9-.92-4.7-.9-7.66.02-2.2.7-2.32.54-1.7-2.22.47-2.2.16-3.4-1.24-4.65-1.77-1.6-1.97-1.58-3.65.27-1.25 1.38-1.6 2.76-1.1 4.64.6 2.43.45 2.6-1.65 1.93-2.9-.92-4.7-.9-7.66.02-2.2.7-2.32.54-1.7-2.22zm8.8-3.4c.46-3.12-3.6-7-4.6-4.4C7.2 6.33 6.18 7 5.2 7c-1.33 0-1.45.27-.52 1.2.66.66 1.2 1.9 1.2 2.75 0 1.05.95 1.55 2.93 1.55 2.38 0 3-.48 3.3-2.56zm17 0c.46-3.12-3.6-7-4.6-4.4-.3.8-1.33 1.46-2.3 1.46-1.33 0-1.45.27-.52 1.2.66.66 1.2 1.9 1.2 2.75 0 1.05.95 1.55 2.93 1.55 2.38 0 3-.48 3.3-2.56zm17 0c.46-3.12-3.6-7-4.6-4.4-.3.8-1.33 1.46-2.3 1.46-1.33 0-1.45.27-.52 1.2.66.66 1.2 1.9 1.2 2.75 0 1.05.95 1.55 2.93 1.55 2.38 0 3-.48 3.3-2.56zm17 0c.46-3.12-3.6-7-4.6-4.4-.3.8-1.33 1.46-2.3 1.46-1.33 0-1.45.27-.52 1.2.66.66 1.2 1.9 1.2 2.75 0 1.05.95 1.55 2.93 1.55 2.38 0 3-.48 3.3-2.56zm17 0c.46-3.12-3.6-7-4.6-4.4-.3.8-1.33 1.46-2.3 1.46-1.33 0-1.45.27-.52 1.2.66.66 1.2 1.9 1.2 2.75 0 1.05.95 1.55 2.93 1.55 2.38 0 3-.48 3.3-2.56z"/></svg>