<svg xmlns="http://www.w3.org/2000/svg" viewBox="0 0 39.62595 39.587744"><path d="M12.93 38.53c-7.8-2.5-14.1-12.9-12.75-21.15C1.6 8.62 6.68 2.95 15.15.68 29.9-3.26 43.03 10.5 38.83 25.5c-3 10.78-14.63 16.62-25.9 13.03zM17.9 27.6c1.58-1 2.4-1 3.97 0 4.7 2.93 7 .36 7-7.87 0-8.28-1.43-9.9-8.8-9.9-7.73 0-9.2 1.54-9.2 9.7 0 8.46 2.26 11.04 7.03 8.06zm-5-5.52c.04-2.68.08-2.7 1.63-.75 1.1 1.4 1.73 1.62 2.05.75.26-.68 1.74-1.25 3.3-1.25 1.56 0 3.05.57 3.3 1.25.33.87.96.64 2.06-.75 1.54-1.95 1.58-1.93 1.6.75.04 2.74.02 2.75-6.96 2.75-6.98 0-7 0-6.97-2.75zm.68-6c-.3-1.5-.06-3.2.53-3.75.75-.7.9-.46.46.75-.54 1.54.1 1.75 5.32 1.75 5.22 0 5.86-.2 5.32-1.75-.42-1.2-.3-1.44.46-.75.6.55.83 2.24.53 3.75-.53 2.62-.82 2.75-6.32 2.75s-5.8-.13-6.3-2.75z"/></svg>