<svg xmlns="http://www.w3.org/2000/svg" viewBox="0 0 486.21 486.21">
  <path d="M479 219.23l-186.04-54 33.97-41.8h20.9c-1.04 4.38.98 9.08 5.17 11.23 1.46.75 3.02 1.1 4.56 1.1 3.63 0 7.13-1.97 8.9-5.42l1.2-2.34c3.1-6.02 3.14-12.3.12-17.25-2.84-4.65-7.9-7.32-13.88-7.32h-70.33c-9.33 0-19.44 6.5-24.03 15.43-2.52 4.92-.6 10.94 4.32 13.47 4.92 2.52 10.94.58 13.47-4.33 1.25-2.43 4.77-4.57 6.24-4.57h17.6L272 159.3c-10.47-2.74-20.45-5.06-28.53-6.9-3.38-.74-13.45-2.2-27.43-2.2-22.1 0-55.84 3.6-90.97 20.6-47.54 23.08-81.53 72.54-93.94 92.73l-1.23 2c-9.84 16.03-20.03 32.6-26.48 51.22-9.36 27.03.78 49.43 27.15 59.9 10.4 4.13 22.28 6.14 36.36 6.14.9 0 1.77 0 2.65-.08 25.1-.4 45.4-1.24 63.9-2.63 24.3-1.8 45.5-5.6 64.84-11.53 63.58-19.53 123.86-41 196.04-67.03 18.6-6.7 37.46-13.6 55.7-20.26 8.7-3.2 26.35-9.6 26.47-9.65 8.45-2.78 9.7-9.13 9.67-12.7V228.8c0-4.44-2.93-8.35-7.2-9.6zm-12.8 34.9l-23 8.4c-18.22 6.66-37.06 13.55-55.62 20.24-71.93 25.94-131.97 47.32-195.12 66.7-17.9 5.5-37.68 9-60.46 10.7-9.6.73-19.7 1.3-30.77 1.73 13.63-16.57 17.65-30.6 12.3-42.62-6.3-14.17-24.35-22.08-55.17-24.22-8.13-.56-15.98-.62-22.55-.5l9.6-15.3 12.07 2.12s30.8 5.72 56.97.02c17.03-3.7 29.3-15.85 36.74-22.78.56-.52 59.17-54.85 58.68-68.42-.13-3.93-1.73-7.45-4.65-9.9-3.5-2.92-9.56-5.8-26.6-6.4 14.4-2.85 27.3-3.7 37.5-3.7 12.83 0 21.43 1.36 23.03 1.72 10.57 2.38 24.46 5.63 38.2 9.58l165.84 48.14-189-4.37H254c-43.84 0-79.9 50.9-81.4 53.06-.6.82-.6 1.9-.1 2.75.46.74 1.27 1.2 2.13 1.2.1 0 .24-.02.37-.04l291.27-37.1v9z" fill="#FFF"/>
</svg>
