<svg xmlns="http://www.w3.org/2000/svg" viewBox="0 0 64 64">
  <g fill="#FFF">
    <path d="M37.63 41.44c-.54 0-1.08.26-1.63.8v11c.55.53 1.1.8 1.64.8.94 0 1.42-.8 1.42-2.44v-7.7c0-1.63-.48-2.46-1.43-2.46zm11.97 0c-1.1 0-1.64.83-1.64 2.5v1.67h3.27V44c0-1.67-.54-2.5-1.63-2.5z"/>
    <path d="M56.4 29.05c-2.06-2.14-4.36-2.15-5.42-2.27-7.55-.54-18.9-.54-18.9-.54s-11.34 0-18.9.54c-1.06.12-3.36.13-5.42 2.27-1.6 1.63-2.14 5.33-2.14 5.33s-.54 4.34-.54 8.68v4.07c0 4.34.54 8.7.54 8.7s.53 3.7 2.14 5.3c2.06 2.15 4.76 2.08 5.96 2.3 4.32.42 18.36.54 18.36.54s11.35 0 18.9-.56c1.06-.1 3.36-.1 5.42-2.2 1.62-1.6 2.14-5.3 2.14-5.3s.54-4.3.54-8.7v-4.1c0-4.3-.54-8.7-.54-8.7s-.52-3.7-2.14-5.3zm-39.42 27.7h-3.64v-20.8H9.5v-3.4h11.4v3.4h-3.92v20.8zm12.9 0H26.6V54.8c-1.3 1.47-2.5 2.2-3.7 2.2-1.05 0-1.78-.43-2.1-1.34-.2-.55-.3-1.4-.3-2.68V38.72h3.28V52c0 .76 0 1.16.02 1.27.08.5.34.77.77.77.66 0 1.34-.5 2.07-1.54V38.72h3.3v18.03zm12.45-5.4c0 1.66-.1 2.86-.33 3.63-.44 1.34-1.3 2.03-2.6 2.03-1.18 0-2.3-.6-3.4-2v1.8h-3.28V32.6H36v7.9c1.06-1.3 2.18-1.96 3.4-1.96 1.3 0 2.16.7 2.6 2.04.22.73.33 1.92.33 3.63v7.2zm12.18-3.02H48v3.2c0 1.67.55 2.5 1.67 2.5.8 0 1.28-.44 1.47-1.3.04-.18.08-.9.08-2.23h3.34v.48c0 1.05-.03 1.78-.06 2.1-.1.73-.37 1.4-.77 1.96-.9 1.32-2.25 1.96-3.96 1.96-1.7 0-3-.6-3.95-1.85-.7-.9-1.06-2.32-1.06-4.24v-6.3c0-1.9.32-3.3 1-4.2.96-1.2 2.26-1.8 3.93-1.8 1.6 0 2.9.6 3.8 1.9.7.9 1 2.3 1 4.27v3.7zm-31-23.9v-9.9L27.9-.03h-3.7l-2.5 9.6-2.6-9.6h-3.9c.76 2.27 1.57 4.55 2.34 6.82 1.18 3.4 1.9 5.9 2.25 7.7v9.9h3.6zm8.6.25c1.7 0 3-.62 3.9-1.86.7-.9 1.1-2.35 1.1-4.3v-6.37c0-1.95-.3-3.37-1-4.3C35 6.62 33.7 6 32.08 6s-2.96.6-3.87 1.86c-.7.92-1 2.34-1 4.3v6.37c0 1.94.35 3.38 1.05 4.3.9 1.23 2.2 1.85 3.85 1.85zm-1.5-13.2c0-1.68.5-2.52 1.6-2.52s1.6.84 1.6 2.53v7.6c0 1.7-.5 2.5-1.55 2.5s-1.57-.9-1.57-2.6v-7.6zM49 24.43V6.2h-3.32v13.94c-.73 1.03-1.43 1.55-2.1 1.55-.43 0-.7-.3-.76-.8-.05-.1-.05-.5-.05-1.3V6.2h-3.3v14.42c0 1.3.1 2.16.3 2.7.33.93 1.06 1.36 2.13 1.36 1.2 0 2.46-.73 3.78-2.24v2h3.3z"/>
  </g>
</svg>
