<svg xmlns="http://www.w3.org/2000/svg" viewBox="0 0 25.477546 30.762761"><path d="M3.48 30.32c-1.1-.3-2.33-1.06-2.73-1.7-1.2-1.85-.87-13.12.43-14.42.8-.8 4.94-1.2 12.03-1.2 9.4 0 10.94.24 11.56 1.75 1.2 2.9.82 13.05-.52 14.4-1.3 1.3-17.1 2.2-20.76 1.17zm2.8-13.54c.78-.48.48-.76-.8-.77-1.83 0-1.96.5-1.52 5.75l.5 5.75.32-4.98c.18-2.74.86-5.32 1.5-5.74zm5.4 3.97c-.23-1.24-.43-.22-.43 2.25 0 2.48.2 3.5.44 2.25.22-1.24.22-3.26 0-4.5zM22.5 26c.34-.56-.06-.72-.95-.38-1.73.66-2.05 1.38-.6 1.38.5 0 1.2-.44 1.54-1zm-13.8-5.24c-.23-1.24-.44-.46-.45 1.74 0 2.2.2 3.22.44 2.26.25-.95.26-2.75.02-4zM21.65 23c.88 0 1.35-.72 1.15-1.75-.6-3-3.3-2.04-3.54 1.25-.12 1.65.03 2.44.34 1.75.3-.7 1.22-1.25 2.04-1.25zm-1.66-2c0-.55.45-1 1-1s1 .45 1 1-.45 1-1 1-1-.45-1-1zM5.72 7.75c-.28-2.34-.84-5.04-1.24-6C3.98.55 4.23 0 5.28 0c.85 0 1.76.56 2.04 1.25.4 1 .52 1 .58 0C7.94.55 8.64 0 9.45 0c.9 0 1.24.6.9 1.5-.43 1.1.12 1.5 2.08 1.5 2.52 0 2.65.24 2.36 4.25-.26 3.48-.68 4.25-2.32 4.25-1.56 0-2.13-.87-2.6-4l-.62-4-.14 4.25c-.2 5.8-2.7 5.8-3.4 0zm6.95-1.48c-.25-.97-.47-.42-.5 1.23 0 1.65.2 2.45.47 1.77.27-.68.3-2.03.03-3zm3.3 1.23c0-4.13.2-4.5 2.5-4.5s2.5.37 2.5 4.5-.2 4.5-2.5 4.5-2.5-.37-2.5-4.5z"/></svg>